<svg xmlns="http://www.w3.org/2000/svg" xmlns:xlink="http://www.w3.org/1999/xlink" width="936.667" height="538.989" viewBox="0 0 936.667 538.989">
  <defs>
    <linearGradient id="linear-gradient" x1="0.5" y1="1" x2="0.5" gradientUnits="objectBoundingBox">
      <stop offset="0" stop-color="#2c3145"/>
      <stop offset="0.049" stop-color="#2c3145"/>
      <stop offset="0.056" stop-color="#f8fdfd"/>
      <stop offset="0.099" stop-color="#2c3145"/>
      <stop offset="0.148" stop-color="#2c3145"/>
      <stop offset="0.201" stop-color="#2c3145"/>
      <stop offset="0.259" stop-color="#2c3145"/>
      <stop offset="0.325" stop-color="#2c3145"/>
      <stop offset="0.402" stop-color="#2c3145"/>
      <stop offset="0.497" stop-color="#2c3145"/>
      <stop offset="0.63" stop-color="#2c3145"/>
      <stop offset="1" stop-color="#2c3145"/>
    </linearGradient>
  </defs>
  <g id="Group_22" data-name="Group 22" transform="translate(-2566 -852.527)">
    <g id="Group_21" data-name="Group 21" transform="translate(2566 852.527)">
      <g id="channels-01_1_" data-name="channels-01 (1)" transform="translate(0 95.343)">
        <g id="Layer_1_1_" transform="translate(0 0)">
          <g id="Group_6" data-name="Group 6" transform="translate(0 0)">
            <path id="Path_6" data-name="Path 6" d="M565.194,251.795l-1.894-.7.3-.9,1.894.7Z" transform="translate(-36.525 -125.337)" fill="#32bdb9"/>
            <path id="Path_7" data-name="Path 7" d="M356.928,567.55c-.9-.9-1.695-1.794-2.492-2.691l.7-.7c.8.9,1.695,1.794,2.492,2.691Zm-5.184-5.582c-.9-1-1.794-1.994-2.592-2.99l.8-.7c.9,1,1.695,1.994,2.592,2.99Zm-5.183-6.081c-.8-1-1.695-2.093-2.492-3.19l.8-.6a37.506,37.506,0,0,0,2.492,3.09Zm-4.984-6.38c-.8-1.1-1.595-2.193-2.392-3.19l.8-.6c.8,1.1,1.595,2.193,2.392,3.19Zm-4.585-6.479c-.8-1.1-1.5-2.193-2.193-3.289l.8-.5c.7,1.1,1.5,2.193,2.193,3.289Zm-4.386-6.778c-.7-1.1-1.4-2.293-2.093-3.389l.9-.5c.7,1.1,1.4,2.293,2.093,3.389Zm-4.087-6.878c-.7-1.2-1.3-2.293-1.894-3.489l.9-.5c.6,1.2,1.3,2.293,1.894,3.489Zm-3.788-7.077-1.794-3.589.9-.4,1.794,3.589Zm-3.489-7.177c-.6-1.2-1.1-2.392-1.595-3.688l.9-.4c.5,1.2,1.1,2.392,1.595,3.589Zm-3.19-7.376c-.5-1.2-1-2.492-1.5-3.688l.9-.4c.5,1.2,1,2.492,1.5,3.688Zm-2.891-7.376c-.5-1.3-.9-2.492-1.3-3.788l1-.3c.4,1.3.9,2.492,1.3,3.788Zm-2.592-7.576c-.4-1.3-.8-2.592-1.2-3.788l1-.3c.4,1.3.8,2.592,1.2,3.788Zm-2.293-7.676c-.4-1.3-.7-2.592-1-3.888l1-.2c.3,1.3.7,2.592,1,3.888Zm-1.994-7.775-.9-3.888,1-.2.9,3.888Zm-1.695-7.875c-.3-1.3-.5-2.691-.7-3.987l1-.2c.2,1.3.5,2.592.7,3.888Zm-1.3-7.875c-.2-1.3-.4-2.691-.6-3.987l1-.1c.2,1.3.4,2.691.6,3.987Zm-1-7.975c-.1-1.3-.3-2.691-.4-3.987l1-.1c.1,1.3.3,2.691.4,3.987Zm-.7-7.975c-.1-1.3-.2-2.691-.2-3.987h1c.1,1.3.1,2.691.2,3.987Zm-.4-7.975c0-1.3-.1-2.691-.1-3.987h1c0,1.3,0,2.691.1,3.987Zm.9-7.975h-1c0-1.3,0-2.691.1-3.987h1c-.1,1.3-.1,2.592-.1,3.987Zm.3-7.975h-1c.1-1.3.2-2.691.2-3.987l1,.1c-.1,1.2-.2,2.492-.2,3.888Zm.6-7.975-1-.1c.1-1.3.3-2.691.4-3.987l1,.1a25.733,25.733,0,0,0-.4,3.987Zm.9-7.975-1-.1c.2-1.3.4-2.691.6-3.987l1,.2a26.212,26.212,0,0,0-.6,3.888Zm1.2-7.875-1-.2c.2-1.3.5-2.592.8-3.987l1,.2c-.3,1.4-.6,2.691-.8,3.987Zm1.595-7.775-1-.2.9-3.888,1,.2c-.3,1.3-.6,2.492-.9,3.888Zm1.894-7.775-1-.3c.4-1.3.7-2.592,1.1-3.888l1,.3c-.4,1.3-.8,2.592-1.1,3.888Zm2.293-7.576-1-.3c.4-1.3.8-2.492,1.3-3.788l1,.3a33.636,33.636,0,0,0-1.3,3.788Zm2.592-7.576-.9-.4c.5-1.3.9-2.492,1.4-3.788l.9.4c-.5,1.3-1,2.492-1.4,3.788Zm2.99-7.277-.9-.5c.6-1.1,1.2-2.293,1.794-3.489l.9.4-1.794,3.589Zm3.289-7.376-.9-.4c.5-1.2,1-2.492,1.595-3.688l.9.4a29.455,29.455,0,0,0-1.595,3.688Zm3.389-7.177-.9-.5c.7-1.2,1.3-2.293,1.894-3.489l.9.5c-.6,1.1-1.3,2.293-1.894,3.489Zm3.888-6.978-.9-.5c.7-1.2,1.4-2.293,2.093-3.389l.9.5c-.7,1.1-1.4,2.293-2.093,3.389ZM333.2,331.6l-.8-.5c.7-1.1,1.4-2.293,2.193-3.389l.8.5c-.8,1.1-1.5,2.293-2.193,3.389Zm4.386-6.679-.8-.6c.8-1.1,1.5-2.193,2.293-3.289l.8.6c-.8,1.1-1.595,2.193-2.293,3.289Zm4.685-6.479-.8-.6c.8-1.1,1.595-2.093,2.392-3.19l.8.6c-.8,1.1-1.695,2.093-2.392,3.19Zm4.884-6.28-.8-.6c.8-1,1.695-2.093,2.492-3.09l.8.6c-.9,1-1.695,2.093-2.492,3.09Zm5.084-6.081-.8-.7,2.691-2.99.7.7c-.8,1-1.695,1.994-2.592,2.99Zm5.383-5.881-.7-.7c.9-1,1.894-1.894,2.791-2.891l.7.7a38.21,38.21,0,0,0-2.791,2.891Zm5.582-5.682-.7-.7c1-.9,1.894-1.894,2.891-2.791l.7.7a38.205,38.205,0,0,0-2.891,2.791Zm5.782-5.582-.7-.7,2.99-2.691.7.8a25.394,25.394,0,0,0-2.99,2.592Zm5.981-5.283-.6-.8a7.2,7.2,0,0,1,1.994-.9,4.8,4.8,0,0,0,1.595-.8l.6.8a7.193,7.193,0,0,1-1.994.9,7.95,7.95,0,0,0-1.595.8Zm6.679-4.087-.6-.8c1.1-.8,2.093-1.595,3.19-2.392l.6.8a24.2,24.2,0,0,0-3.19,2.392Zm6.38-4.884-.6-.8c1.1-.8,2.193-1.595,3.289-2.293l.6.8c-1.2.8-2.293,1.5-3.289,2.293Zm6.579-4.486-.5-.8c1.1-.7,2.193-1.5,3.389-2.193l.5.9c-1.2.7-2.392,1.4-3.389,2.093Zm6.778-4.187-.5-.9c1.2-.7,2.293-1.3,3.489-1.994l.5.9a22.919,22.919,0,0,0-3.489,1.994Zm6.978-3.888-.5-.9c1.2-.7,2.392-1.3,3.589-1.894l.5.9c-1.3.6-2.492,1.2-3.688,1.794Zm7.077-3.688-.4-.9c1.2-.6,2.392-1.2,3.589-1.695l.4.9c-1.3.5-2.492,1.1-3.688,1.695Zm7.177-3.289-.4-.9c1.2-.5,2.492-1.1,3.688-1.595l.4.9c-1.3.5-2.592,1-3.788,1.5Zm7.376-2.99-.4-.9c1.3-.5,2.492-.9,3.788-1.4l.3.9c-1.3.4-2.592.9-3.888,1.3Zm128.889-2.392c-1.3-.4-2.492-.9-3.788-1.3l.3-1c1.3.4,2.492.8,3.788,1.3Zm-121.313-.3-.3-.9c1.3-.4,2.492-.8,3.788-1.2l.3,1c-1.3.3-2.691.7-3.888,1.1Zm113.637-2.193c-1.3-.4-2.592-.7-3.788-1.1l.3-1c1.3.4,2.592.7,3.888,1.1Zm-106.161-.2-.3-1c1.3-.4,2.592-.7,3.888-1.1l.3,1c-1.3.4-2.592.7-3.888,1.1Zm98.486-1.894-3.888-.9.2-1,3.888.9Zm-90.81-.2-.2-1,3.888-.9.2,1Zm83.035-1.595c-1.3-.3-2.592-.5-3.888-.8l.2-1c1.3.2,2.691.5,3.987.8Zm-75.26-.1-.2-1c1.3-.3,2.592-.5,3.987-.7l.2,1C463.089,242.787,461.793,243.086,460.5,243.285Zm67.385-1.3c-1.3-.2-2.691-.4-3.987-.6l.1-1c1.3.2,2.691.4,3.987.6Zm-59.51-.1-.1-1c1.3-.2,2.691-.4,3.987-.6l.1,1c-1.4.2-2.691.4-3.987.6Zm51.635-1c-1.3-.2-2.691-.3-3.987-.4l.1-1c1.3.1,2.691.3,3.987.4Zm-43.76-.1-.1-1c1.3-.2,2.691-.3,3.987-.4l.1,1c-1.3.2-2.691.3-3.987.4Zm35.786-.7c-1.3-.1-2.691-.2-3.987-.3v-1c1.3.1,2.691.2,3.987.3Zm-27.911,0-.1-1c1.3-.1,2.691-.2,3.987-.2v1c-1.2.1-2.492.1-3.888.2Zm19.936-.4c-1.3,0-2.692-.1-3.987-.1v-1c1.3,0,2.691,0,3.987.1Zm-11.962,0v-1c1.3,0,2.691-.1,3.987-.1v1c-1.3.1-2.592.1-3.987.1Z" transform="translate(-35.697 -125.3)" fill="#2c3145"/>
            <path id="Path_8" data-name="Path 8" d="M625.088,568.183l-.7-.7c1-.9,1.894-1.794,2.891-2.791l.7.7C626.982,566.289,626.085,567.286,625.088,568.183Zm5.682-5.682-.7-.7c.9-1,1.794-1.894,2.791-2.891l.7.7C632.664,560.607,631.667,561.6,630.77,562.5Zm5.482-5.781-.8-.7c.9-1,1.794-1.994,2.592-2.99l.8.7c-.9,1-1.794,1.994-2.592,2.99Zm5.183-6.18-.8-.6c.8-1,1.695-2.093,2.492-3.09l.8.6c-.9,1.1-1.695,2.093-2.492,3.09Zm4.884-6.28-.8-.6c.8-1.1,1.595-2.093,2.293-3.19l.8.6c-.7,1.1-1.5,2.093-2.293,3.19Zm4.585-6.479-.8-.6c.7-1.1,1.5-2.193,2.193-3.289l.8.5a32.482,32.482,0,0,1-2.193,3.389ZM655.292,531l-.8-.5c.7-1.1,1.4-2.293,2.093-3.389l.9.5c-.8,1.1-1.5,2.293-2.193,3.389Zm4.087-6.878-.9-.5c.7-1.2,1.3-2.293,1.894-3.489l.9.5c-.6,1.2-1.3,2.293-1.894,3.489Zm3.688-7.077-.9-.5,1.794-3.588.9.4c-.6,1.3-1.2,2.492-1.794,3.688Zm3.489-7.177-.9-.4c.5-1.2,1.1-2.392,1.595-3.688l.9.4c-.5,1.2-1.1,2.492-1.595,3.688Zm3.09-7.376-.9-.4c.5-1.2,1-2.492,1.4-3.688l.9.4c-.4,1.2-.9,2.492-1.4,3.688Zm2.791-7.476-.9-.3c.4-1.3.9-2.492,1.3-3.788l1,.3c-.5,1.3-.9,2.492-1.4,3.788Zm2.492-7.576-1-.3c.4-1.3.8-2.492,1.1-3.788l1,.3c-.3,1.2-.7,2.492-1.1,3.788Zm2.093-7.775-1-.2.9-3.888,1,.2a27.344,27.344,0,0,1-.9,3.888Zm1.794-7.775-1-.2c.3-1.3.5-2.592.8-3.888l1,.2c-.2,1.3-.5,2.592-.8,3.888Zm1.5-7.875-1-.2.6-3.888,1,.1c-.2,1.4-.4,2.691-.6,3.987Zm1.1-7.875-1-.1c.2-1.3.3-2.691.4-3.987l1,.1c-.1,1.3-.2,2.691-.4,3.987Zm.8-7.975-1-.1c.1-1.3.2-2.691.3-3.987h1c-.1,1.4-.2,2.791-.3,4.087Zm.4-7.975h-1c0-1.3.1-2.691.1-3.987h1c0,1.3,0,2.592-.1,3.987Zm-.9-7.975c0-1.3,0-2.691-.1-3.987h1c0,1.3.1,2.691.1,3.987Zm-.3-7.975c-.1-1.3-.2-2.691-.3-3.987l1-.1c.1,1.3.2,2.691.3,3.987Zm-.6-7.975c-.1-1.3-.3-2.691-.4-3.987l1-.1c.2,1.3.3,2.691.4,3.987Zm-.9-7.875c-.2-1.3-.4-2.592-.6-3.987l1-.2c.2,1.3.4,2.691.6,3.987Zm-1.3-7.875c-.2-1.3-.5-2.592-.8-3.888l1-.2c.3,1.3.5,2.592.8,3.888Zm-1.595-7.775-.9-3.888,1-.2c.3,1.3.7,2.592,1,3.888Zm-1.994-7.775c-.4-1.3-.7-2.592-1.1-3.788l1-.3c.4,1.3.8,2.592,1.1,3.888Zm-2.293-7.576c-.4-1.3-.8-2.492-1.3-3.788l.9-.3c.4,1.3.9,2.492,1.3,3.788Zm-2.691-7.576c-.5-1.3-1-2.492-1.5-3.688l.9-.4c.5,1.2,1,2.492,1.5,3.788Zm-2.99-7.376c-.5-1.2-1.1-2.492-1.595-3.688l.9-.4c.6,1.2,1.1,2.492,1.595,3.688Zm-3.289-7.277-1.794-3.589.9-.5,1.794,3.589Zm-3.589-7.177c-.6-1.2-1.3-2.392-1.894-3.489l.9-.5c.7,1.2,1.3,2.293,1.894,3.489Zm-3.888-6.978c-.7-1.1-1.4-2.293-2.093-3.389l.8-.5c.7,1.1,1.4,2.293,2.093,3.389ZM652.1,334.23c-.7-1.1-1.5-2.193-2.193-3.289l.8-.6a39.436,39.436,0,0,1,2.193,3.389Zm-4.486-6.579c-.8-1.1-1.595-2.193-2.392-3.19l.8-.6c.8,1.1,1.595,2.193,2.392,3.19Zm-4.785-6.38a37.52,37.52,0,0,0-2.492-3.09l.8-.6c.8,1,1.695,2.093,2.492,3.09Zm-4.984-6.18c-.9-1-1.695-1.994-2.592-2.99l.8-.7c.9,1,1.794,1.994,2.592,2.99Zm-5.383-5.981c-.9-1-1.794-1.894-2.791-2.891l.7-.7c.9,1,1.894,1.894,2.791,2.891Zm-5.482-5.682c-.9-.9-1.894-1.894-2.891-2.791l.7-.7c1,.9,1.894,1.894,2.891,2.791ZM371.4,301.435l-.7-.7c1-.9,1.894-1.794,2.891-2.691l.7.7c-.9.9-1.894,1.794-2.891,2.691Zm249.8-3.389c-1-.9-1.994-1.794-2.99-2.592l.7-.8,2.99,2.691Zm-243.921-1.994-.7-.8c1-.9,1.994-1.794,2.99-2.592l.6.8a35.725,35.725,0,0,1-2.891,2.592Zm237.941-3.29c-1-.8-2.093-1.695-3.09-2.492l.6-.8c1,.8,2.093,1.695,3.09,2.492Zm-231.76-1.794-.6-.8c1-.8,2.093-1.695,3.19-2.492l.6.8C385.453,289.273,384.456,290.171,383.459,290.968Zm225.48-3.09c-1.1-.8-2.093-1.595-3.19-2.392l.6-.8c1.1.8,2.193,1.595,3.19,2.392Zm-219.2-1.794-.6-.8c1.1-.8,2.193-1.595,3.289-2.293l.6.8C391.932,284.588,390.836,285.286,389.739,286.084Zm212.821-2.891c-1.1-.8-2.193-1.5-3.289-2.193l.5-.8c1.1.7,2.193,1.5,3.289,2.193ZM396.219,281.5l-.6-.8c1.1-.7,2.193-1.5,3.389-2.193l.5.8a37.71,37.71,0,0,1-3.289,2.193Zm199.663-2.691c-1.1-.7-2.293-1.4-3.389-2.093l.5-.9c1.1.7,2.293,1.4,3.389,2.093ZM403,277.212l-.5-.9c1.1-.7,2.293-1.3,3.489-2.093l.5.9c-1.2.8-2.392,1.5-3.489,2.093ZM589.1,274.72c-1.2-.7-2.293-1.3-3.489-1.894l.5-.9c1.2.7,2.293,1.3,3.489,1.894Zm-179.228-1.5-.5-.9c1.2-.7,2.392-1.3,3.489-1.894l.5.9C412.168,272.028,411.071,272.627,409.875,273.225Zm172.25-2.293-3.589-1.794.4-.9,3.588,1.794Zm-165.173-1.4-.4-.9c1.2-.6,2.392-1.2,3.589-1.695l.4.9C419.345,268.44,418.149,269.038,416.952,269.536Zm158-2.093c-1.2-.6-2.392-1.1-3.588-1.595l.4-.9c1.2.5,2.392,1.1,3.688,1.595Zm-150.819-1.3-.4-.9c1.2-.5,2.492-1.1,3.688-1.595l.4.9c-1.2.6-2.392,1.1-3.688,1.595Zm143.542-1.894c-1.2-.5-2.492-1-3.688-1.5l.4-.9c1.3.5,2.492,1,3.688,1.5Zm-136.066-1.1-.4-.9c1.2-.5,2.492-1,3.788-1.4l.3.9c-1.3.4-2.492.9-3.688,1.4Zm128.689-1.695c-1.3-.5-2.492-.9-3.788-1.3l.3-.9c1.3.4,2.492.9,3.788,1.3Zm-121.213-1-.3-.9c1.3-.4,2.492-.8,3.788-1.2l.3,1a16.514,16.514,0,0,0-3.788,1.1Zm113.637-1.595c-1.3-.4-2.492-.8-3.788-1.1l.3-1c1.3.4,2.592.7,3.788,1.1Zm-106.061-.9-.3-1c1.3-.4,2.592-.7,3.888-1.1l.3,1C449.15,257.275,447.854,257.575,446.658,257.973Zm98.386-1.3c-1.3-.3-2.592-.7-3.888-1l.2-1c1.3.3,2.592.6,3.888,1Zm-90.71-.8-.2-1,3.888-.9.2,1c-1.3.3-2.592.7-3.888.9Zm82.935-1.1c-1.3-.3-2.592-.5-3.888-.8l.2-1c1.3.3,2.592.5,3.888.8Zm-75.16-.6-.2-1c1.3-.3,2.691-.5,3.987-.7l.2,1c-1.4.2-2.691.5-3.987.7Zm67.385-.9-3.888-.6.2-1c1.3.2,2.691.4,3.987.6Zm-59.51-.5-.1-1c1.3-.2,2.691-.4,3.987-.6l.1,1c-1.4.2-2.691.4-3.987.6Zm51.635-.7c-1.3-.2-2.691-.3-3.987-.5l.1-1c1.3.1,2.691.3,3.987.5Zm-43.76-.4-.1-1c1.3-.1,2.691-.3,3.987-.4l.1,1c-1.3.2-2.592.3-3.987.4Zm35.786-.4c-1.3-.1-2.691-.2-3.987-.3l.1-1c1.3.1,2.691.2,3.987.3Zm-27.811-.3-.1-1c1.3-.1,2.691-.2,3.987-.2v1c-1.2.1-2.592.2-3.888.2Zm19.936-.2c-1.3-.1-2.691-.1-3.987-.1v-1c1.3,0,2.691,0,3.987.1Zm-11.962-.1v-1c1.3,0,2.691,0,3.987-.1v1c-1.3.1-2.691.1-3.987.1Z" transform="translate(-35.912 -125.335)" fill="url(#linear-gradient)"/>
            <path id="Path_9" data-name="Path 9" d="M367.1,305.893l-.7-.7,1.4-1.4.7.7Z" transform="translate(-35.899 -125.507)" fill="#32bdb9"/>
            <path id="Path_10" data-name="Path 10" d="M563.2,254.477l4.286-7.277,4.187,7.277Z" transform="translate(-36.525 -125.327)" fill="#2c3145"/>
            <path id="Path_11" data-name="Path 11" d="M371.075,306.984l-7.775,3.19,1.2-8.274Z" transform="translate(-35.889 -125.501)" fill="#2c3145"/>
            <path id="Path_12" data-name="Path 12" d="M492.9,171.475l4.286-7.775,4.585,7.676Z" transform="translate(-36.301 -125.061)" fill="#2c3145"/>
            <path id="Path_13" data-name="Path 13" d="M497.3,315.238V311.25h1v3.987Zm0-7.975v-3.987h1v3.987Zm0-7.975V295.3h1v3.987Zm0-7.975v-3.987h1v3.987Zm0-7.975v-3.987h1v3.987Zm0-7.974v-3.987h1v3.987Zm0-7.975V263.4h1v3.987Zm0-7.975v-3.987h1v3.987Zm0-7.975v-3.987h1v3.987Zm0-7.975V239.48h1v3.987Zm0-7.975V231.5h1v3.987Zm0-7.975V223.53h1v3.987Zm0-7.975v-3.987h1v3.987Zm0-7.975v-3.987h1v3.987Zm0-7.975v-3.987h1v3.987Zm0-7.975v-3.987h1v3.987Zm0-7.975v-3.987h1v3.987Zm0-7.975v-3.987h1v3.987Zm0-7.975v-1.3h1v1.3Z" transform="translate(-36.315 -125.083)" fill="#2c3145"/>
            <circle id="Ellipse_29" data-name="Ellipse 29" cx="2.99" cy="2.99" r="2.99" transform="matrix(0.911, -0.413, 0.413, 0.911, 457.53, 188.672)" fill="#2c3145"/>
            <path id="Path_14" data-name="Path 14" d="M731,262.9l8.872-1-3.589,8.174Z" transform="translate(-37.059 -125.374)" fill="#2c3145"/>
            <path id="Path_15" data-name="Path 15" d="M611.5,340.86l-.5-.9,3.389-2.093.5.9Zm6.778-4.087-.5-.9,3.389-2.093.5.9Zm6.878-4.187-.5-.9,3.389-2.093.5.9Zm6.778-4.087-.5-.9,3.389-2.093.5.9Zm6.778-4.087-.5-.9,3.389-2.093.5.9Zm6.878-4.187-.5-.9,3.389-2.093.5.9Zm6.778-4.087-.5-.9,3.389-2.093.5.9Zm6.878-4.187-.5-.9,3.389-2.093.5.9Zm6.778-4.087-.5-.9,3.389-2.093.5.9Zm6.778-4.087-.5-.9,3.389-2.093.5.9Zm6.878-4.187-.5-.9,3.389-2.093.5.9Zm6.778-4.087-.5-.9,3.389-2.093.5.9Zm6.878-4.187-.5-.9,3.389-2.093.5.9Zm6.778-4.087-.5-.9,3.389-2.093.5.9Zm6.778-4.087-.5-.9,3.389-2.093.5.9Zm6.878-4.187-.5-.9,3.389-2.093.5.9Zm6.778-4.087-.5-.9,3.389-2.093.5.9Zm6.878-4.187-.5-.9,3.389-2.093.5.9Zm6.778-4.087-.5-.9.2-.1.5.9Z" transform="translate(-36.677 -125.386)" fill="#2c3145"/>
            <circle id="Ellipse_30" data-name="Ellipse 30" cx="2.99" cy="2.99" r="2.99" transform="translate(570.21 215.903) rotate(-56.102)" fill="#2c3145"/>
            <path id="Path_16" data-name="Path 16" d="M271.172,262.9l-8.872-1,3.589,8.174Z" transform="translate(-35.567 -125.374)" fill="#2c3145"/>
            <path id="Path_17" data-name="Path 17" d="M390.307,340.86l-3.389-2.093.5-.9,3.389,2.093Zm-6.778-4.087-3.389-2.093.5-.9,3.389,2.093Zm-6.878-4.187-3.389-2.093.5-.9,3.389,2.093Zm-6.778-4.087-3.389-2.093.5-.9,3.389,2.093Zm-6.878-4.087-3.389-2.093.5-.9,3.389,2.093Zm-6.778-4.187-3.389-2.093.5-.9,3.389,2.093Zm-6.878-4.087-3.389-2.093.5-.9,3.389,2.093Zm-6.778-4.187-3.389-2.093.5-.9,3.389,2.093Zm-6.778-4.087-3.389-2.093.5-.9,3.389,2.093ZM329,303.778l-3.389-2.093.5-.9,3.389,2.093Zm-6.878-4.187-3.389-2.093.5-.9,3.389,2.093Zm-6.778-4.087-3.489-2.093.5-.9,3.389,2.093Zm-6.878-4.187-3.389-2.093.5-.9,3.389,2.093Zm-6.778-4.087-3.389-2.093.5-.9,3.389,2.093Zm-6.778-4.087-3.389-2.093.5-.9,3.389,2.093Zm-6.978-4.187-3.389-2.093.5-.9,3.389,2.093Zm-6.778-4.087-3.389-2.093.5-.9,3.389,2.093Zm-6.878-4.187-3.389-2.093.5-.9,3.389,2.093ZM267.5,266.6l-.2-.1.5-.9.2.1Z" transform="translate(-35.583 -125.386)" fill="#2c3145"/>
            <circle id="Ellipse_31" data-name="Ellipse 31" cx="2.99" cy="2.99" r="2.99" transform="translate(350.863 214.246) rotate(-33.898)" fill="#2c3145"/>
            <path id="Path_18" data-name="Path 18" d="M742.7,457.771l8.074-3.788L743.4,448.8Z" transform="translate(-37.096 -125.968)" fill="#2c3145"/>
            <path id="Path_19" data-name="Path 19" d="M744.116,453.7h-.7v-1h.7Zm-4.685,0h-3.987v-1h3.987Zm-7.974,0h-3.987v-1h3.987Zm-7.975,0h-3.987v-1h3.987Zm-7.975,0H711.52v-1h3.987Zm-7.975,0h-3.987v-1h3.987Zm-7.975,0h-3.987v-1h3.987Zm-7.974,0H687.6v-1h3.987Zm-7.975,0h-3.987v-1h3.987Zm-7.975,0h-3.987v-1h3.987Zm-7.975,0h-3.987v-1h3.987Zm-7.975,0H655.7v-1h3.987Zm-7.975,0h-3.987v-1h3.987Zm-7.974,0h-3.987v-1h3.987Zm-7.975,0h-3.987v-1h3.987Zm-7.975,0H623.8v-1h3.987Z" transform="translate(-36.718 -125.981)" fill="#2c3145"/>
            <circle id="Ellipse_32" data-name="Ellipse 32" cx="2.99" cy="2.99" r="2.99" transform="translate(583.38 328.383) rotate(-65.449)" fill="#2c3145"/>
            <path id="Path_20" data-name="Path 20" d="M257.274,457.171l-8.074-3.788,7.376-5.183Z" transform="translate(-35.526 -125.967)" fill="#2c3145"/>
            <path id="Path_21" data-name="Path 21" d="M257.6,453.1v-1h3.987v1Zm7.975,0v-1h3.987v1Zm7.975,0v-1h3.987v1Zm7.975,0v-1h3.987v1Zm7.975,0v-1h3.987v1Zm7.975,0v-1h3.987v1Zm7.975,0v-1h3.987v1Zm7.975,0v-1h3.987v1Zm7.975,0v-1h3.987v1Zm7.975,0v-1h3.987v1Zm7.975,0v-1h3.987v1Zm7.975,0v-1h3.987v1Zm7.975,0v-1h3.987v1Zm7.975,0v-1h3.987v1Zm7.975,0v-1h3.987v1Z" transform="translate(-35.552 -125.979)" fill="#2c3145"/>
            <path id="Path_141" data-name="Path 141" d="M2.99,0A2.99,2.99,0,1,1,0,2.99,2.99,2.99,0,0,1,2.99,0Z" transform="translate(333.726 325.139) rotate(-24.387)" fill="#2c3145"/>
            <path id="Path_22" data-name="Path 22" d="M384.3,568.814l6.18-.1a170.666,170.666,0,0,1-64.793-133.873c0-94.3,76.655-170.954,170.954-170.954S667.6,340.543,667.6,434.842A170.8,170.8,0,0,1,602.6,568.914l6.18.1a174.632,174.632,0,0,0,62.7-134.072C671.483,338.45,593.034,260,496.542,260S321.6,338.45,321.6,434.942A175.032,175.032,0,0,0,384.3,568.814Z" transform="translate(-35.756 -125.368)" fill="#27ae60"/>
            <path id="Path_23" data-name="Path 23" d="M851.575,480.66h0L856.659,468h2.592v15.55h-2.093V471.888h-.1l-4.685,11.663h-1.5l-4.884-12.061h-.1V483.55H843.8V468h2.791Z" transform="translate(-37.418 -126.03)" fill="#414042"/>
            <path id="Path_24" data-name="Path 24" d="M869.776,483.563a6.344,6.344,0,0,0-.2-.9c0-.3-.1-.5-.1-.8a5,5,0,0,1-1.5,1.4,3.594,3.594,0,0,1-1.994.6,4.086,4.086,0,0,1-2.791-.9,3.53,3.53,0,0,1-1-2.592,3.306,3.306,0,0,1,1.3-2.592,6,6,0,0,1,3.688-.9h2.293v-1.1a2.263,2.263,0,0,0-.6-1.595,2.783,2.783,0,0,0-1.794-.6,3.36,3.36,0,0,0-1.695.5,1.558,1.558,0,0,0-.6,1.2H862.8v-.1a2.668,2.668,0,0,1,1.2-2.293,4.793,4.793,0,0,1,3.289-1,4.691,4.691,0,0,1,3.19,1,3.508,3.508,0,0,1,1.2,2.891v5.582a4.851,4.851,0,0,0,.1,1.2,3.582,3.582,0,0,0,.2,1.1l-2.193-.1Zm-3.489-1.5a3.923,3.923,0,0,0,2.093-.6,2.75,2.75,0,0,0,1.2-1.4V478.18h-2.392a3.594,3.594,0,0,0-1.994.6,1.893,1.893,0,0,0-.8,1.5,1.651,1.651,0,0,0,.5,1.2,1.968,1.968,0,0,0,1.4.6Z" transform="translate(-37.476 -126.042)" fill="#414042"/>
            <path id="Path_25" data-name="Path 25" d="M880.183,473.893l-1.1-.1a2.289,2.289,0,0,0-1.4.4,3.116,3.116,0,0,0-.9,1.1v8.274H874.7V471.9h1.894l.2,1.695a4.058,4.058,0,0,1,1.2-1.4,3.36,3.36,0,0,1,1.695-.5h.5l.3.1Z" transform="translate(-37.516 -126.041)" fill="#414042"/>
            <path id="Path_26" data-name="Path 26" d="M885.69,478.264h-1.1v5.383H882.5V466.9h2.093v9.669h1.1l3.489-4.585h2.492l-4.187,5.383,4.585,6.28h-2.592Z" transform="translate(-37.541 -126.026)" fill="#414042"/>
            <path id="Path_27" data-name="Path 27" d="M898.283,483.862a4.785,4.785,0,0,1-3.888-1.595,5.933,5.933,0,0,1-1.4-4.187v-.5a6,6,0,0,1,1.4-4.087,4.145,4.145,0,0,1,3.489-1.595,4.056,4.056,0,0,1,3.489,1.5,6.646,6.646,0,0,1,1.2,3.888v1.1h-7.377a4.578,4.578,0,0,0,.8,2.791,2.648,2.648,0,0,0,2.392,1.1,6.261,6.261,0,0,0,1.894-.3,6.359,6.359,0,0,0,1.4-.8l.8,1.4a5.355,5.355,0,0,1-1.595,1A22.919,22.919,0,0,1,898.283,483.862Zm-.3-10.367a2.131,2.131,0,0,0-1.794.9,4.293,4.293,0,0,0-.9,2.193h5.183v-.2a3.923,3.923,0,0,0-.6-2.093,2.087,2.087,0,0,0-1.894-.8Z" transform="translate(-37.574 -126.042)" fill="#414042"/>
            <path id="Path_28" data-name="Path 28" d="M907.988,469.2v2.791h2.193v1.595h-2.193v7.077a2.009,2.009,0,0,0,.3,1.1,1.392,1.392,0,0,0,.9.3h.4l.4-.1.3,1.5a.905.905,0,0,1-.7.3,2.761,2.761,0,0,1-.9.1,2.43,2.43,0,0,1-1.994-.8,3.649,3.649,0,0,1-.8-2.392v-7.077H904.1v-1.595h1.794V469.2Z" transform="translate(-37.609 -126.033)" fill="#414042"/>
            <path id="Path_29" data-name="Path 29" d="M922.268,478.279a6.288,6.288,0,0,1-1.2,3.987,3.839,3.839,0,0,1-3.289,1.5,4.32,4.32,0,0,1-1.894-.4,3.588,3.588,0,0,1-1.4-1.1v5.682H912.4V471.9h1.595l.3,1.5a4.343,4.343,0,0,1,1.4-1.3,3.433,3.433,0,0,1,1.994-.4,3.944,3.944,0,0,1,3.389,1.695,7.1,7.1,0,0,1,1.2,4.486v.4Zm-2.093-.3a5.851,5.851,0,0,0-.8-3.19,2.637,2.637,0,0,0-2.293-1.3,3.157,3.157,0,0,0-1.595.4,3.447,3.447,0,0,0-1,1.1v5.582a2.651,2.651,0,0,0,1,1.1,2.925,2.925,0,0,0,1.595.4,2.582,2.582,0,0,0,2.293-1.1,5.359,5.359,0,0,0,.8-2.791v-.2Z" transform="translate(-37.636 -126.041)" fill="#414042"/>
            <path id="Path_30" data-name="Path 30" d="M927.193,483.547H925.1V466.9h2.093v16.647Z" transform="translate(-37.676 -126.026)" fill="#414042"/>
            <path id="Path_31" data-name="Path 31" d="M937.576,483.563a6.337,6.337,0,0,0-.2-.9c0-.3-.1-.5-.1-.8a5,5,0,0,1-1.5,1.4,3.593,3.593,0,0,1-1.994.6,4.086,4.086,0,0,1-2.791-.9,3.53,3.53,0,0,1-1-2.592,3.306,3.306,0,0,1,1.3-2.592,6,6,0,0,1,3.688-.9h2.293v-1.1a2.264,2.264,0,0,0-.6-1.595,2.783,2.783,0,0,0-1.794-.6,3.361,3.361,0,0,0-1.695.5,1.558,1.558,0,0,0-.6,1.2H930.6v-.1a2.668,2.668,0,0,1,1.2-2.293,4.792,4.792,0,0,1,3.289-1,4.691,4.691,0,0,1,3.19,1,3.508,3.508,0,0,1,1.2,2.891v5.582a4.857,4.857,0,0,0,.1,1.2,3.579,3.579,0,0,0,.2,1.1l-2.193-.1Zm-3.489-1.5a3.923,3.923,0,0,0,2.093-.6,2.75,2.75,0,0,0,1.2-1.4V478.18h-2.392a3.594,3.594,0,0,0-1.994.6,1.893,1.893,0,0,0-.8,1.5,1.651,1.651,0,0,0,.5,1.2,1.968,1.968,0,0,0,1.4.6Z" transform="translate(-37.692 -126.042)" fill="#414042"/>
            <path id="Path_32" data-name="Path 32" d="M947.183,482.167a2.707,2.707,0,0,0,1.695-.6,1.983,1.983,0,0,0,.7-1.595h1.894v.1a3.664,3.664,0,0,1-1.3,2.691,4.985,4.985,0,0,1-6.878-.5,6.251,6.251,0,0,1-1.3-4.087v-.5a6.461,6.461,0,0,1,1.3-4.087,4.842,4.842,0,0,1,3.788-1.695,4.7,4.7,0,0,1,3.19,1.2,3.84,3.84,0,0,1,1.2,2.99v.1h-1.894a2.4,2.4,0,0,0-.7-1.794,2.334,2.334,0,0,0-1.794-.8,2.458,2.458,0,0,0-2.293,1.2,5.9,5.9,0,0,0-.7,2.891v.5a6.283,6.283,0,0,0,.7,2.99A3.092,3.092,0,0,0,947.183,482.167Z" transform="translate(-37.73 -126.042)" fill="#414042"/>
            <path id="Path_33" data-name="Path 33" d="M958.883,483.862A4.785,4.785,0,0,1,955,482.267a5.934,5.934,0,0,1-1.4-4.187v-.5a6,6,0,0,1,1.4-4.087,4.146,4.146,0,0,1,3.489-1.595,4.056,4.056,0,0,1,3.489,1.5,6.646,6.646,0,0,1,1.2,3.888v1.1h-7.376a4.577,4.577,0,0,0,.8,2.791,2.648,2.648,0,0,0,2.392,1.1,6.26,6.26,0,0,0,1.894-.3,6.362,6.362,0,0,0,1.4-.8l.8,1.4a5.357,5.357,0,0,1-1.595,1A22.925,22.925,0,0,1,958.883,483.862Zm-.3-10.367a2.131,2.131,0,0,0-1.794.9,4.293,4.293,0,0,0-.9,2.193h5.183v-.2a3.923,3.923,0,0,0-.6-2.093,2.087,2.087,0,0,0-1.894-.8Z" transform="translate(-37.767 -126.042)" fill="#414042"/>
            <path id="Path_34" data-name="Path 34" d="M972.377,480.473a1.428,1.428,0,0,0-.5-1.1,4.943,4.943,0,0,0-1.994-.8,9.549,9.549,0,0,1-3.19-1.2,2.6,2.6,0,0,1-1.1-2.093,2.971,2.971,0,0,1,1.2-2.392,5.233,5.233,0,0,1,6.28.1,3.024,3.024,0,0,1,1.2,2.492v.1h-1.994a2.094,2.094,0,0,0-.7-1.4,2.707,2.707,0,0,0-1.695-.6,2.609,2.609,0,0,0-1.695.5,1.341,1.341,0,0,0-.5,1.2,1.6,1.6,0,0,0,.5,1.1,4.777,4.777,0,0,0,1.994.7,6.986,6.986,0,0,1,3.19,1.3,2.647,2.647,0,0,1,1.1,2.193,3.024,3.024,0,0,1-1.2,2.492,5.359,5.359,0,0,1-3.289,1,4.892,4.892,0,0,1-3.489-1.1,3.215,3.215,0,0,1-1.2-2.592v-.1h1.994a1.811,1.811,0,0,0,.8,1.595,2.891,2.891,0,0,0,1.794.5,3.076,3.076,0,0,0,1.794-.5A1.885,1.885,0,0,0,972.377,480.473Z" transform="translate(-37.804 -126.042)" fill="#414042"/>
            <text id="Inventory_Management" data-name="Inventory Management" transform="translate(0 342.215)" font-size="18" font-family="Roboto-Medium, Roboto" font-weight="500"><tspan x="0" y="17">Inventory Management</tspan></text>
            <text id="Retail_and_Point_of_Sale" data-name="Retail and Point of Sale" transform="translate(0 119.215)" font-size="18" font-family="Roboto-Medium, Roboto" font-weight="500"><tspan x="0" y="17">Retail and Point of Sale</tspan></text>
            <text id="Accounts" transform="translate(416 0.215)" font-size="18" font-family="Roboto-Medium, Roboto" font-weight="500"><tspan x="0" y="17">Accounts</tspan></text>
            <text id="Manufacturing" transform="translate(795 119.215)" font-size="18" font-family="Roboto-Medium, Roboto" font-weight="500"><tspan x="0" y="17">Manufacturing</tspan></text>
          </g>
        </g>
        <g id="Group_20" data-name="Group 20" transform="translate(820.382 227.979)">
          <g id="Group_45" data-name="Group 45" transform="translate(1.979 41.566)">
            <path id="Path_130" data-name="Path 130" d="M301.816,225.623A11.755,11.755,0,0,1,307.794,224a11.876,11.876,0,0,1,11.876,11.876v5.938A11.865,11.865,0,0,1,311.751,253v2.672a83.238,83.238,0,0,0,9.9,3.955c5.938,1.979,5.938,5.938,5.938,5.938v11.876H288V265.561s0-3.955,5.938-5.938a83.223,83.223,0,0,0,9.9-3.955V253a11.865,11.865,0,0,1-7.918-11.183v-5.938a11.877,11.877,0,0,1,5.9-10.253Z" transform="translate(-236.537 -224)" fill="#142743"/>
            <path id="Path_131" data-name="Path 131" d="M50.254,275.461v1.979H10.667V265.565s0-3.955,5.938-5.938a83.233,83.233,0,0,0,9.9-3.955V253a11.865,11.865,0,0,1-7.918-11.183V235.88a11.876,11.876,0,0,1,23.753,0v5.938A11.865,11.865,0,0,1,34.418,253v2.672a83.242,83.242,0,0,0,9.9,3.955c5.938,1.979,5.938,5.938,5.938,5.938Z" transform="translate(-10.667 -223.999)" fill="#142743"/>
          </g>
          <path id="Path_132" data-name="Path 132" d="M182.215,79.252v2.672a83.229,83.229,0,0,1-9.9,3.955c-5.938,1.979-5.938,5.938-5.938,5.938v9.9H154.5V91.82s0-3.955-5.938-5.938a83.229,83.229,0,0,1-9.9-3.955V79.252a11.865,11.865,0,0,0,7.918-11.183V62.126a11.876,11.876,0,0,0-5.9-10.253c.158-1.009,1.03-3.955,5.9-5.582a83.23,83.23,0,0,0,9.9-3.955V39.665a11.865,11.865,0,0,1-7.918-11.183V22.543a11.876,11.876,0,0,1,23.753,0v5.939A11.865,11.865,0,0,1,164.4,39.665v2.672a83.244,83.244,0,0,0,9.9,3.955c4.869,1.623,5.74,4.573,5.9,5.582a11.877,11.877,0,0,0-5.9,10.253v5.938a11.865,11.865,0,0,0,7.916,11.188Z" transform="translate(-112.935 -8.688)" fill="#eff7fc"/>
          <g id="Group_46" data-name="Group 46" transform="translate(0 0)">
            <path id="Path_133" data-name="Path 133" d="M87.717,75.316a88.337,88.337,0,0,1-8.543-3.336v-.1a13.856,13.856,0,0,0,7.918-12.506V53.442a13.8,13.8,0,0,0-18.72-12.948,10.756,10.756,0,0,0-6.386-4.764,88.331,88.331,0,0,1-8.543-3.336v-.1a13.856,13.856,0,0,0,7.918-12.506V13.856a13.856,13.856,0,0,0-27.712,0v5.938A13.856,13.856,0,0,0,41.567,32.3v.1a88.256,88.256,0,0,1-8.544,3.336A10.761,10.761,0,0,0,26.636,40.5,13.794,13.794,0,0,0,7.918,53.442v5.938a13.856,13.856,0,0,0,7.918,12.506v.1a88.259,88.259,0,0,1-8.543,3.336C.083,77.719,0,82.916,0,83.132V95.008H3.955V83.189c0-.106.2-2.653,4.586-4.113A84.6,84.6,0,0,0,18.7,75.02a1.979,1.979,0,0,0,1.091-1.781V70.564A1.979,1.979,0,0,0,18.465,68.7a9.9,9.9,0,0,1-6.6-9.317V53.442a9.909,9.909,0,0,1,9.9-9.9A9.777,9.777,0,0,1,26.745,44.9a9.939,9.939,0,0,1,4.919,8.545v5.938a9.9,9.9,0,0,1-6.6,9.317,1.979,1.979,0,0,0-1.321,1.867v2.67a1.979,1.979,0,0,0,1.091,1.781A84.591,84.591,0,0,0,34.994,79.08c4.386,1.451,4.584,4,4.584,4.05V95.006h3.955V83.132c0-.22-.083-5.414-7.292-7.817A88.332,88.332,0,0,1,27.7,71.979v-.1a13.856,13.856,0,0,0,7.917-12.506V53.442a13.9,13.9,0,0,0-5.5-11.029,7.011,7.011,0,0,1,4.157-2.921A84.589,84.589,0,0,0,44.43,35.436a1.979,1.979,0,0,0,1.091-1.781V30.976A1.979,1.979,0,0,0,44.2,29.109a9.9,9.9,0,0,1-6.6-9.317V13.856a9.9,9.9,0,0,1,19.794,0v5.938a9.9,9.9,0,0,1-6.6,9.317,1.979,1.979,0,0,0-1.321,1.867v2.672a1.979,1.979,0,0,0,1.091,1.773,84.587,84.587,0,0,0,10.156,4.065,6.963,6.963,0,0,1,4.164,2.925,13.9,13.9,0,0,0-5.511,11.029v5.938A13.856,13.856,0,0,0,67.3,71.885v.1a88.26,88.26,0,0,1-8.543,3.336c-7.209,2.4-7.292,7.6-7.292,7.817V95.009h3.955V83.189c0-.106.2-2.653,4.586-4.113A84.608,84.608,0,0,0,70.16,75.02a1.98,1.98,0,0,0,1.091-1.781V70.564A1.979,1.979,0,0,0,69.929,68.7a9.9,9.9,0,0,1-6.6-9.317V53.442a9.94,9.94,0,0,1,4.926-8.548,9.762,9.762,0,0,1,4.97-1.347,9.909,9.909,0,0,1,9.9,9.9v5.938a9.9,9.9,0,0,1-6.6,9.317,1.979,1.979,0,0,0-1.321,1.867v2.669A1.979,1.979,0,0,0,76.3,75.015a84.583,84.583,0,0,0,10.161,4.068c4.386,1.451,4.584,4,4.584,4.05V95.009H95V83.132c0-.22-.083-5.414-7.292-7.817Z" transform="translate(0 0)" fill="#142743"/>
            <path id="Path_134" data-name="Path 134" d="M245.333,288h3.955v3.955h-3.955Z" transform="translate(-199.808 -234.558)" fill="#142743"/>
            <path id="Path_135" data-name="Path 135" d="M245.333,245.333h3.955v3.955h-3.955Z" transform="translate(-199.808 -199.808)" fill="#142743"/>
            <path id="Path_136" data-name="Path 136" d="M245.333,330.667h3.955v3.955h-3.955Z" transform="translate(-199.808 -269.307)" fill="#142743"/>
            <path id="Path_137" data-name="Path 137" d="M160,458.667h3.955v9.9H160Z" transform="translate(-130.31 -373.555)" fill="#eff7fc"/>
            <path id="Path_138" data-name="Path 138" d="M53.333,458.667h3.955v9.9H53.333Z" transform="translate(-43.436 -373.555)" fill="#eff7fc"/>
            <path id="Path_139" data-name="Path 139" d="M330.667,458.667h3.955v9.9h-3.955Z" transform="translate(-269.307 -373.555)" fill="#eff7fc"/>
            <path id="Path_140" data-name="Path 140" d="M437.333,458.667h3.955v9.9h-3.955Z" transform="translate(-356.18 -373.555)" fill="#eff7fc"/>
          </g>
        </g>
      </g>
      <g id="boxes" transform="translate(21.93 345.896)">
        <path id="Path_30-2" data-name="Path 30" d="M280.983,204.061l-31.875,11.6L238.8,187.328l31.875-11.6Z" transform="translate(-193.793 -148.712)" fill="#eff7fc"/>
        <path id="Path_31-2" data-name="Path 31" d="M337.4,314.639l1.934,5.312L302.906,333.2a10.333,10.333,0,0,0-.6-2.791,10.442,10.442,0,0,0-1.333-2.524l30.468-11.088Z" transform="translate(-244.252 -261.445)" fill="#2c3145"/>
        <path id="Path_32-2" data-name="Path 32" d="M226.212,53.572l8.379,23.022-12.4,4.512-7.077,2.578-12.4,4.507-8.379-23.02Z" transform="translate(-157.712 -49.579)" fill="#eff7fc"/>
        <path id="Path_33-2" data-name="Path 33" d="M311.655,199.667l2.578,7.083-7.077,2.578-2.578-7.084Z" transform="translate(-247.173 -168.141)" fill="#adc9dd"/>
        <path id="Path_34-2" data-name="Path 34" d="M267.188,77.512l2.578,7.083-7.084,2.574L260.1,80.092Z" transform="translate(-211.084 -69.006)" fill="#adc9dd"/>
        <path id="Path_35" data-name="Path 35" d="M220.12,366.409a10.393,10.393,0,1,1-2.478-2.433,10.393,10.393,0,0,1,2.478,2.433Z" transform="translate(-163.398 -299.97)" fill="#656d78"/>
        <g id="Group_12" data-name="Group 12" transform="translate(1.412 1.404)">
          <path id="Path_36" data-name="Path 36" d="M246.837,403.974a2.827,2.827,0,1,1-3.623-1.695,2.827,2.827,0,0,1,3.623,1.695Z" transform="translate(-197.281 -333.838)" fill="#ccd1d9"/>
          <path id="Path_37" data-name="Path 37" d="M53.646,100.618h0a10.441,10.441,0,0,0-5.314,1.932L27.574,45.516,9.435,52.061,7.5,46.746,25.642,40.2a5.651,5.651,0,0,1,7.246,3.379Z" transform="translate(-7.5 -39.856)" fill="#2c3145"/>
        </g>
        <rect id="Rectangle_17" data-name="Rectangle 17" width="5.653" height="24.499" transform="translate(63.221 5.914) rotate(-19.999)" fill="#adc9dd"/>
        <path id="Path_40" data-name="Path 40" d="M0,0H5.654V30.154H0Z" transform="translate(71.598 28.939) rotate(-20.004)" fill="#adc9dd"/>
        <rect id="Rectangle_19" data-name="Rectangle 19" width="6.205" height="5.654" transform="translate(87.313 55.321) rotate(-19.999)" fill="#aab2bc"/>
        <path id="Path_38" data-name="Path 38" d="M238.1,394.615a4.24,4.24,0,1,0,3.987,2.791A4.241,4.241,0,0,0,238.1,394.615Zm.483,5.569a1.408,1.408,0,1,1,.8-.731,1.414,1.414,0,0,1-.8.731Z" transform="translate(-189.787 -326.348)" fill="#2c3145"/>
        <path id="Path_39" data-name="Path 39" d="M96.054,91.9c.029-.028.057-.055.083-.085l.015-.019c.025-.029.049-.058.071-.088l.007-.01c.024-.034.047-.068.068-.1l.011-.02c.019-.033.037-.066.053-.1.006-.013.011-.028.017-.041s.024-.056.035-.085a.583.583,0,0,0,.018-.06c.006-.02.015-.046.021-.07s.015-.071.021-.106a.056.056,0,0,1,0-.028,1.406,1.406,0,0,0-.07-.692l-1.934-5.313a1.408,1.408,0,0,0-.722-.8h-.008c-.021-.01-.043-.018-.065-.027s-.04-.018-.061-.025H93.6a1.4,1.4,0,0,0-.939.009L88.039,85.92,78.206,58.906h0L74.34,48.279a1.414,1.414,0,1,0-2.658.967l3.389,9.3L56.918,65.149h0L45.854,69.177,38.434,48.814l9.741-3.545,2.093,5.755a1.416,1.416,0,0,0,1.327.931,1.371,1.371,0,0,0,.484-.087l7.084-2.578a1.41,1.41,0,0,0,.915-1.529h0a1.016,1.016,0,0,0-.022-.11.059.059,0,0,0-.006-.031,1.394,1.394,0,0,0-.042-.137l-2.093-5.755,9.739-3.545,2.093,5.754a1.421,1.421,0,0,0,1.325.922,1.383,1.383,0,0,0,.484-.087,1.415,1.415,0,0,0,.849-1.807l-2.578-7.084a1.412,1.412,0,0,0-1.808-.844l-12.4,4.511h-.017l-7.06,2.577h-.012l-.021.009L36.141,46.641a1.411,1.411,0,0,0-.844,1.811l8.378,23.023,8.06,22.137a11.7,11.7,0,0,0-3.19-.508L28.127,37.021A7.077,7.077,0,0,0,19.069,32.8h0L.933,39.339h0c-.033.012-.064.026-.095.04L.8,39.4c-.031.015-.06.032-.089.048l-.036.02c-.028.017-.054.036-.081.055l-.036.024c-.025.019-.047.039-.071.059l-.036.03c-.022.02-.042.042-.062.064s-.023.023-.034.035S.32,39.776.3,39.8a.188.188,0,0,0-.031.039c-.01.014-.031.046-.046.069s-.02.029-.029.045l-.038.071-.026.049c-.008.016-.02.048-.03.072s-.016.036-.022.054-.015.048-.022.071-.013.039-.018.059-.01.048-.015.071-.009.042-.012.063,0,.049-.008.073a.477.477,0,0,0,0,.064v.139a.294.294,0,0,0,.007.076c.007.025,0,.042.006.063s.01.05.015.075.008.043.013.064.015.05.023.075.012.042.019.062h0L2.017,46.46c.015.04.035.077.052.115a.969.969,0,0,0,.041.089c.016.028.049.075.074.113s.03.049.047.071a1.358,1.358,0,0,0,.1.109c.016.016.03.035.047.051a1.415,1.415,0,0,0,.122.1c.015.012.029.025.044.036a1.38,1.38,0,0,0,.142.083l.042.025a1.4,1.4,0,0,0,.154.061c.015,0,.029.013.045.018a1.439,1.439,0,0,0,.162.038.362.362,0,0,1,.045.01,1.378,1.378,0,0,0,.214.017.984.984,0,0,0,.121,0h.025a.751.751,0,0,0,.1-.012l.044-.01c.026,0,.051-.01.076-.017l.081-.025.038-.012h0L20.642,41.25,40.578,96.011a11.775,11.775,0,1,0,19.522,9.1l35.462-12.9h0l.027-.012c.036-.014.072-.028.106-.045l.042-.023c.028-.015.056-.029.083-.045l.044-.03c.024-.016.049-.032.072-.049l.021-.018c.029-.023.058-.047.085-.072Zm-36.672,8.95a11.721,11.721,0,0,0-.564-1.3L92.3,87.378l.967,2.657L59.783,102.211a11.979,11.979,0,0,0-.4-1.359Zm1.44-29.107-1.612-4.422,4.428-1.612,1.612,4.427ZM56.87,47.118l-4.428,1.611L50.832,44.3,55.26,42.69ZM46.816,71.834l9.739-3.549,2.093,5.755a1.407,1.407,0,0,0,1.811.844l7.084-2.578a1.412,1.412,0,0,0,.844-1.811l-2.093-5.754L76.035,61.2l9.348,25.685L57.182,97.14A11.851,11.851,0,0,0,55.429,95.5Zm-24-32.879c-.008-.023-.019-.044-.028-.066s-.018-.044-.028-.066-.02-.037-.03-.056-.024-.047-.038-.069-.02-.029-.03-.044-.032-.049-.049-.072a.4.4,0,0,0-.029-.035c-.01-.012-.039-.049-.06-.072L22.5,38.45c-.023-.024-.047-.048-.072-.07l-.022-.018c-.028-.024-.056-.047-.085-.068l-.013-.009c-.033-.023-.067-.046-.1-.066H22.2a1.418,1.418,0,0,0-.638-.19H21.4a.755.755,0,0,0-.115.011l-.055.011c-.028,0-.056.01-.084.017s-.063.019-.095.029l-.042.013H21L4.193,44.173l-.967-2.657,16.81-6.062h0a4.244,4.244,0,0,1,5.435,2.535L45.642,93.405a11.526,11.526,0,0,0-2.656.969Zm33.612,69.71a8.954,8.954,0,1,1,.3-6.845,8.954,8.954,0,0,1-.3,6.845Z" transform="translate(0 -32.373)" fill="#2c3145"/>
      </g>
      <g id="card-payment" transform="translate(35.387 108.902)">
        <path id="Path_41" data-name="Path 41" d="M328.843,49.2h-35.6a6.957,6.957,0,0,1,.137,1.389v42.18H328.84a5.1,5.1,0,0,0,5.1-5.1V54.3A5.1,5.1,0,0,0,328.843,49.2Z" transform="translate(-238.695 -43.638)" fill="#eff7fc"/>
        <path id="Path_42" data-name="Path 42" d="M460.286,49.2h-5.555a5.1,5.1,0,0,1,5.091,5.1V87.666a5.1,5.1,0,0,1-5.084,5.1h5.548a5.1,5.1,0,0,0,5.1-5.1V54.3a5.1,5.1,0,0,0-5.1-5.1Z" transform="translate(-370.138 -43.638)" fill="#adc9dd"/>
        <path id="Path_43" data-name="Path 43" d="M47.74,99.948H6.952A6.961,6.961,0,0,1,0,93V26.254A6.961,6.961,0,0,1,6.952,19.3H47.74a6.961,6.961,0,0,1,6.952,6.952V93A6.961,6.961,0,0,1,47.74,99.948Z" transform="translate(0 -19.3)" fill="#142743" stroke="#2b3144" stroke-width="1"/>
        <path id="Path_44" data-name="Path 44" d="M232.289,19.3h-5.563a6.961,6.961,0,0,1,6.952,6.952V93a6.961,6.961,0,0,1-6.952,6.952h5.563A6.961,6.961,0,0,0,239.242,93V26.254A6.961,6.961,0,0,0,232.289,19.3Z" transform="translate(-184.549 -19.3)" fill="#142743"/>
        <path id="Path_45" data-name="Path 45" d="M47.74,422.4H6.952A6.961,6.961,0,0,1,0,415.447v7.419a6.961,6.961,0,0,0,6.952,6.952H47.74a6.959,6.959,0,0,0,6.952-6.952v-7.419A6.961,6.961,0,0,1,47.74,422.4Z" transform="translate(0 -341.751)" fill="#142743" stroke="#142743" stroke-width="1"/>
        <path id="Path_46" data-name="Path 46" d="M84.591,88.6H51.224a1.391,1.391,0,0,1-1.391-1.391V70.524a1.391,1.391,0,0,1,1.391-1.391H84.591a1.391,1.391,0,0,1,1.391,1.391V87.208A1.391,1.391,0,0,1,84.591,88.6Z" transform="translate(-40.56 -59.861)" fill="#eff7fc"/>
        <path id="Path_47" data-name="Path 47" d="M212.354,69.133h-5.563a1.391,1.391,0,0,1,1.391,1.391V87.208a1.391,1.391,0,0,1-1.391,1.391h5.563a1.391,1.391,0,0,0,1.391-1.391V70.524a1.391,1.391,0,0,0-1.391-1.391Z" transform="translate(-168.321 -59.861)" fill="#adc9dd"/>
        <path id="Path_48" data-name="Path 48" d="M436.109,211.436h-7.416a1.391,1.391,0,1,1,0-2.78h7.416a1.391,1.391,0,0,1,0,2.78Z" transform="translate(-347.813 -173.429)" fill="#2c3145"/>
        <g id="Group_13" data-name="Group 13" transform="translate(9.733 35.692)">
          <path id="Path_49" data-name="Path 49" d="M196.481,220.419a4.635,4.635,0,1,1,4.635-4.635,4.635,4.635,0,0,1-4.635,4.635Z" transform="translate(-165.89 -211.15)" fill="#ccd1d9"/>
          <path id="Path_50" data-name="Path 50" d="M126.719,220.419a4.635,4.635,0,1,1,4.635-4.635,4.635,4.635,0,0,1-4.635,4.635Z" transform="translate(-109.106 -211.15)" fill="#ccd1d9"/>
          <path id="Path_51" data-name="Path 51" d="M56.956,220.419a4.635,4.635,0,1,1,4.635-4.635A4.635,4.635,0,0,1,56.956,220.419Z" transform="translate(-52.321 -211.15)" fill="#ccd1d9"/>
          <path id="Path_52" data-name="Path 52" d="M196.481,290.181a4.635,4.635,0,1,1,4.635-4.635,4.635,4.635,0,0,1-4.635,4.635Z" transform="translate(-165.89 -267.934)" fill="#ccd1d9"/>
          <path id="Path_53" data-name="Path 53" d="M126.719,290.181a4.635,4.635,0,1,1,4.635-4.635,4.635,4.635,0,0,1-4.635,4.635Z" transform="translate(-109.106 -267.934)" fill="#ccd1d9"/>
          <path id="Path_54" data-name="Path 54" d="M56.955,290.181a4.635,4.635,0,1,1,4.636-4.635,4.635,4.635,0,0,1-4.636,4.635Z" transform="translate(-52.321 -267.934)" fill="#ccd1d9"/>
        </g>
        <g id="Group_14" data-name="Group 14" transform="translate(9.733 37.547)">
          <path id="Path_55" data-name="Path 55" d="M196.481,230.386a4.635,4.635,0,1,1,4.635-4.635,4.635,4.635,0,0,1-4.635,4.635Z" transform="translate(-165.89 -221.117)" fill="#adc9dd"/>
          <path id="Path_56" data-name="Path 56" d="M126.719,230.386a4.635,4.635,0,1,1,4.635-4.635,4.635,4.635,0,0,1-4.635,4.635Z" transform="translate(-109.106 -221.117)" fill="#adc9dd"/>
          <path id="Path_57" data-name="Path 57" d="M56.956,230.386a4.635,4.635,0,1,1,4.635-4.635A4.635,4.635,0,0,1,56.956,230.386Z" transform="translate(-52.321 -221.117)" fill="#adc9dd"/>
          <path id="Path_58" data-name="Path 58" d="M196.481,300.147a4.635,4.635,0,1,1,4.635-4.634,4.635,4.635,0,0,1-4.635,4.634Z" transform="translate(-165.89 -277.9)" fill="#adc9dd"/>
          <path id="Path_59" data-name="Path 59" d="M126.719,300.147a4.635,4.635,0,1,1,4.635-4.634,4.634,4.634,0,0,1-4.635,4.634Z" transform="translate(-109.106 -277.9)" fill="#adc9dd"/>
          <path id="Path_60" data-name="Path 60" d="M56.956,300.147a4.635,4.635,0,1,1,4.635-4.634A4.634,4.634,0,0,1,56.956,300.147Z" transform="translate(-52.321 -277.9)" fill="#adc9dd"/>
          <path id="Path_61" data-name="Path 61" d="M196.683,370.066a4.588,4.588,0,1,1,4.588-4.588A4.588,4.588,0,0,1,196.683,370.066Z" transform="translate(-166.093 -334.887)" fill="#adc9dd"/>
          <path id="Path_62" data-name="Path 62" d="M126.719,369.909a4.635,4.635,0,1,1,4.635-4.635,4.635,4.635,0,0,1-4.635,4.635Z" transform="translate(-109.106 -334.684)" fill="#adc9dd"/>
          <path id="Path_63" data-name="Path 63" d="M56.956,369.909a4.635,4.635,0,1,1,4.635-4.635A4.635,4.635,0,0,1,56.956,369.909Z" transform="translate(-52.321 -334.684)" fill="#adc9dd"/>
        </g>
        <g id="Group_15" data-name="Group 15" transform="translate(9.733 61.648)">
          <path id="Path_64" data-name="Path 64" d="M196.683,360.1a4.588,4.588,0,1,1,4.588-4.588A4.588,4.588,0,0,1,196.683,360.1Z" transform="translate(-166.093 -350.875)" fill="#ccd1d9"/>
          <path id="Path_65" data-name="Path 65" d="M126.719,359.942a4.635,4.635,0,1,1,4.635-4.635,4.635,4.635,0,0,1-4.635,4.635Z" transform="translate(-109.106 -350.673)" fill="#ccd1d9"/>
          <path id="Path_66" data-name="Path 66" d="M56.956,359.942a4.635,4.635,0,1,1,4.635-4.635A4.635,4.635,0,0,1,56.956,359.942Z" transform="translate(-52.321 -350.673)" fill="#ccd1d9"/>
        </g>
        <g id="Group_16" data-name="Group 16" transform="translate(9.733 35.692)">
          <path id="Path_67" data-name="Path 67" d="M196.481,220.419a4.635,4.635,0,1,1,4.635-4.635,4.635,4.635,0,0,1-4.635,4.635Z" transform="translate(-165.89 -211.15)" fill="#eff7fc"/>
          <path id="Path_68" data-name="Path 68" d="M126.719,220.419a4.635,4.635,0,1,1,4.635-4.635,4.635,4.635,0,0,1-4.635,4.635Z" transform="translate(-109.106 -211.15)" fill="#eff7fc"/>
          <path id="Path_69" data-name="Path 69" d="M56.956,220.419a4.635,4.635,0,1,1,4.635-4.635A4.635,4.635,0,0,1,56.956,220.419Z" transform="translate(-52.321 -211.15)" fill="#eff7fc"/>
          <path id="Path_70" data-name="Path 70" d="M196.481,290.181a4.635,4.635,0,1,1,4.635-4.635,4.635,4.635,0,0,1-4.635,4.635Z" transform="translate(-165.89 -267.934)" fill="#eff7fc"/>
          <path id="Path_71" data-name="Path 71" d="M126.719,290.181a4.635,4.635,0,1,1,4.635-4.635,4.635,4.635,0,0,1-4.635,4.635Z" transform="translate(-109.106 -267.934)" fill="#eff7fc"/>
          <path id="Path_72" data-name="Path 72" d="M56.953,290.18a4.632,4.632,0,1,1,1.054-.12A4.522,4.522,0,0,1,56.953,290.18Z" transform="translate(-52.319 -267.933)" fill="#eff7fc"/>
          <path id="Path_73" data-name="Path 73" d="M196.683,360.1a4.588,4.588,0,1,1,4.588-4.588A4.588,4.588,0,0,1,196.683,360.1Z" transform="translate(-166.093 -324.92)" fill="#eff7fc"/>
          <path id="Path_74" data-name="Path 74" d="M126.719,359.942a4.635,4.635,0,1,1,4.635-4.635,4.635,4.635,0,0,1-4.635,4.635Z" transform="translate(-109.106 -324.717)" fill="#eff7fc"/>
          <path id="Path_75" data-name="Path 75" d="M56.956,359.942a4.635,4.635,0,1,1,4.635-4.635A4.635,4.635,0,0,1,56.956,359.942Z" transform="translate(-52.321 -324.717)" fill="#eff7fc"/>
        </g>
        <rect id="Rectangle_21" data-name="Rectangle 21" width="40.695" height="9.27" transform="translate(54.553 12.516)" fill="#2c3145"/>
        <rect id="Rectangle_22" data-name="Rectangle 22" width="5.562" height="9.27" transform="translate(89.685 12.516)" fill="#2a384d"/>
      </g>
      <g id="_014-shopping-list" data-name="014-shopping-list" transform="translate(420.657)">
        <path id="Path_76" data-name="Path 76" d="M66.176,0H20.8a7.314,7.314,0,0,0-7.3,7.306,1.153,1.153,0,0,0,1.15,1.156H57.715A1.153,1.153,0,0,0,58.87,7.306V7.222A7.3,7.3,0,0,1,66.176,0Z" transform="translate(-13.5 0.001)" fill="#adc9dd"/>
        <path id="Path_77" data-name="Path 77" d="M141.173,71.427V7.292a7.3,7.3,0,0,0-14.605-.085v.084a1.153,1.153,0,0,1-1.16,1.157H93.492v62.98a7.306,7.306,0,0,0,7.306,7.306h47.681a7.306,7.306,0,0,1-7.306-7.307Z" transform="translate(-81.192 0.015)" fill="#142743"/>
        <path id="Path_78" data-name="Path 78" d="M350.616,71.44V7.306A7.3,7.3,0,0,0,341,.374a7.307,7.307,0,0,1,5,6.932v64.13a7.306,7.306,0,0,0,7.306,7.306h4.619a7.306,7.306,0,0,1-7.307-7.3Z" transform="translate(-290.635 0.001)" fill="#adc9dd"/>
        <path id="Path_79" data-name="Path 79" d="M416.961,456.991H403.5v1.153a7.306,7.306,0,1,0,14.612,0,1.153,1.153,0,0,0-1.151-1.153Z" transform="translate(-343.522 -386.703)" fill="#adc9dd"/>
        <g id="Group_17" data-name="Group 17" transform="translate(30.752 44.373)">
          <path id="Path_80" data-name="Path 80" d="M231.571,290.8H214.647a1.153,1.153,0,0,1,0-2.307h16.923a1.153,1.153,0,0,1,0,2.307Z" transform="translate(-213.494 -288.498)" fill="#656d78"/>
          <path id="Path_81" data-name="Path 81" d="M223.879,350.8h-9.226a1.153,1.153,0,1,1,0-2.307h9.226a1.153,1.153,0,1,1,0,2.307Z" transform="translate(-213.493 -339.268)" fill="#656d78"/>
        </g>
        <g id="Group_18" data-name="Group 18" transform="translate(20.758 42.831)">
          <path id="Path_82" data-name="Path 82" d="M150.374,283.545a1.149,1.149,0,0,0,.7.334h.111a1.171,1.171,0,0,0,.2-.019l.051-.011a1.149,1.149,0,0,0,.557-.308l3.076-3.076a1.153,1.153,0,1,0-1.631-1.631l-2.26,2.26-.723-.723A1.153,1.153,0,1,0,148.834,282Z" transform="translate(-148.496 -278.496)" fill="#eff7fc"/>
          <path id="Path_83" data-name="Path 83" d="M153.449,338.835l-2.26,2.26-.723-.723A1.153,1.153,0,1,0,148.835,342l1.538,1.538a1.149,1.149,0,0,0,.7.334h.111a1.171,1.171,0,0,0,.2-.019l.051-.011a1.148,1.148,0,0,0,.557-.308l3.076-3.076a1.154,1.154,0,1,0-1.632-1.631Z" transform="translate(-148.496 -329.266)" fill="#eff7fc"/>
          <path id="Path_84" data-name="Path 84" d="M153.449,398.835l-2.26,2.26-.723-.723A1.153,1.153,0,1,0,148.835,402l1.538,1.538a1.149,1.149,0,0,0,.7.334h.111a1.171,1.171,0,0,0,.2-.019l.051-.011a1.149,1.149,0,0,0,.557-.308l3.076-3.076a1.154,1.154,0,0,0-1.632-1.631Z" transform="translate(-148.496 -380.035)" fill="#eff7fc"/>
        </g>
        <path id="Path_85" data-name="Path 85" d="M233.109,410.8H214.652a1.153,1.153,0,1,1,0-2.307h18.456a1.153,1.153,0,0,1,0,2.307Z" transform="translate(-182.741 -345.665)" fill="#656d78"/>
        <path id="Path_86" data-name="Path 86" d="M204.035,144.177c.012-.017.025-.032.036-.049a.443.443,0,0,0,.025-.041c.008-.014.022-.036.032-.055s.014-.029.021-.043l.027-.057c.009-.019.012-.033.019-.051s.013-.036.019-.055.011-.041.016-.062.009-.031.011-.047.008-.049.011-.073a.145.145,0,0,0,0-.039v-.236l-1.536-13.832v-.046a.685.685,0,0,0-.013-.079c-.006-.027-.007-.027-.01-.04s-.011-.048-.019-.071-.011-.032-.018-.049-.013-.038-.021-.057-.018-.037-.027-.056-.014-.03-.022-.045-.023-.039-.036-.058l-.022-.036c-.013-.019-.028-.038-.042-.056l-.024-.032-.046-.05-.03-.032c-.014-.014-.03-.028-.047-.042l-.037-.032-.046-.035-.045-.032-.046-.028-.05-.03-.046-.022-.055-.026-.051-.019-.055-.019-.06-.016-.049-.012-.069-.01-.043-.007H186.079l-.065.009-.047.007a.291.291,0,0,0-.08.02l-.028.007a.9.9,0,0,0-.091.032h-.013q-.048.02-.094.043h-.007a.888.888,0,0,0-.089.052h-.007c-.028.018-.055.038-.08.058l-.01.008c-.023.019-.047.04-.069.061l-.016.013a.736.736,0,0,0-.057.061l-.019.021c-.017.02-.031.04-.047.06l-.021.029c-.013.02-.026.04-.038.061s-.014.022-.021.035l-.032.063c-.011.021-.012.025-.018.037s-.018.047-.027.07l-.013.036c0,.012-.014.051-.021.077s-.007.022-.009.033-.009.053-.013.08a.069.069,0,0,0,0,.032v.011l-1.536,13.833v.12h0v.154a.659.659,0,0,0,.011.073c0,.024.008.031.011.047s.01.041.016.062.012.036.019.055.011.035.019.051l.027.057c.009.019.013.029.021.043s.021.037.032.055.016.028.024.041.023.032.036.049l.03.041c.01.013.024.028.037.041s.024.029.038.042l.037.035.046.041.037.029.051.039.04.026.055.033.048.023.053.026.058.022.047.017c.023.008.048.013.071.019l.039.01a.682.682,0,0,1,.079.012h.033c.037,0,.073.006.111.007H203.12a.617.617,0,0,0,.111-.007h.033a.469.469,0,0,0,.079-.012l.039-.01c.025-.006.048-.011.071-.019l.047-.017.058-.022.053-.026.048-.023c.019-.01.036-.022.055-.033l.04-.026.051-.039.037-.029.046-.041.037-.035.038-.042L204,144.2Z" transform="translate(-157.355 -108.73)" fill="#eff7fc"/>
        <path id="Path_87" data-name="Path 87" d="M227.731,88.5a4.231,4.231,0,0,0-4.231,4.231V97.34a1.153,1.153,0,1,0,2.307,0V92.725a1.923,1.923,0,1,1,3.846,0V97.34a1.153,1.153,0,0,0,2.307,0V92.725A4.231,4.231,0,0,0,227.731,88.5Z" transform="translate(-191.205 -74.883)" fill="#adc9dd"/>
      </g>
      <g id="Group_19" data-name="Group 19" transform="translate(805.429 102.672)">
        <g id="Group_19-2" data-name="Group 19" transform="translate(12.676 35.539)">
          <path id="Path_100" data-name="Path 100" d="M67.209,202.477a1.445,1.445,0,0,1-1.445-1.445v-15.2a1.445,1.445,0,0,1,2.891,0v15.2A1.445,1.445,0,0,1,67.209,202.477Z" transform="translate(-65.764 -184.382)" fill="#365e7d"/>
        </g>
        <path id="Path_101" data-name="Path 101" d="M262.844,357.581H285.5v6.5H262.844Z" transform="translate(-212.183 -288.659)" fill="#adc9dd"/>
        <path id="Path_102" data-name="Path 102" d="M326,364.079h10.481v-6.5h-9.928Z" transform="translate(-263.163 -288.659)" fill="#2b4d66"/>
        <path id="Path_103" data-name="Path 103" d="M70.626,285.184H24.73V233.179a.36.36,0,0,1,.489-.335l45.176,17.5a.36.36,0,0,1,.229.335v34.5Z" transform="translate(-19.963 -187.945)" fill="#eff7fc"/>
        <path id="Path_104" data-name="Path 104" d="M25.22,232.845a.36.36,0,0,0-.489.335v4.187l38.078,14.753a5.615,5.615,0,0,1,3.589,5.235v27.833h4.228V250.681a.36.36,0,0,0-.229-.335Z" transform="translate(-19.964 -187.945)" fill="#2b3144"/>
        <path id="Path_105" data-name="Path 105" d="M94.785,301.653a.629.629,0,0,1,.42.6v8.981a.629.629,0,0,1-.629.629H65.359a.629.629,0,0,1-.629-.629V291.943a.629.629,0,0,1,.838-.6l9.491,3.347,9.817,3.462Z" transform="translate(-52.254 -235.164)" fill="#adc9dd"/>
        <path id="Path_106" data-name="Path 106" d="M84.875,298.158,75.058,294.7l-9.491-3.347a.629.629,0,0,0-.838.6v2.417l6.117,2.157,9.817,3.462,8.366,2.951a2.941,2.941,0,0,1,1.963,2.773v6.153h3.583a.629.629,0,0,0,.629-.629V302.25a.629.629,0,0,0-.42-.6Z" transform="translate(-52.253 -235.164)" fill="#142743"/>
        <path id="Path_107" data-name="Path 107" d="M361.5,246.206l-3.179,3.855H346.848l-3.178-3.855,2.12-24.983,1.059-12.492.184-2.175,2.078-3.7c.029-.472.318-.834.665-.834h5.62c.347,0,.636.363.665.834l2.093,3.865,1.231,14.5,1.059,12.492Z" transform="translate(-277.429 -163.082)" fill="#eff7fc"/>
        <path id="Path_108" data-name="Path 108" d="M399.13,209.5,398.071,197l-2.049-24.149a.912.912,0,0,0-.908-.834h-3.52a.912.912,0,0,1,.908.834L394.552,197,395.61,209.5l1.06,16.348,3.52-3.855Z" transform="translate(-316.117 -138.865)" fill="#142743"/>
        <path id="Path_109" data-name="Path 109" d="M371.636,184.513H360.16l.989-11.657a.912.912,0,0,1,.908-.834h7.68a.912.912,0,0,1,.908.834Z" transform="translate(-290.742 -138.865)" fill="#eff7fc"/>
        <path id="Path_110" data-name="Path 110" d="M392.5,172.855l.989,11.657h3.52l-.989-11.657a.912.912,0,0,0-.908-.834H391.6a.912.912,0,0,1,.908.834Z" transform="translate(-316.117 -138.865)" fill="#142743"/>
        <path id="Path_111" data-name="Path 111" d="M364.883,314.133H349.17l1.06-12.492h13.595Z" transform="translate(-281.87 -243.502)" fill="#adc9dd"/>
        <path id="Path_112" data-name="Path 112" d="M411.517,314.133l-1.059-12.492H406.94L408,314.133Z" transform="translate(-328.504 -243.502)" fill="#142743"/>
        <path id="Path_113" data-name="Path 113" d="M113.1,463.6H93.848V454.46a.629.629,0,0,1,.629-.629H112.47a.629.629,0,0,1,.629.629V463.6Z" transform="translate(-75.76 -366.357)" fill="#adc9dd"/>
        <path id="Path_114" data-name="Path 114" d="M172.588,453.831V463.6h4.074v-9.137a.629.629,0,0,0-.629-.629Z" transform="translate(-139.322 -366.357)" fill="#142743"/>
        <g id="Group_20-2" data-name="Group 20" transform="translate(21.36 58.087)">
          <path id="Path_115" data-name="Path 115" d="M112.265,321.416a1.445,1.445,0,0,1-1.445-1.445V302.81a1.445,1.445,0,1,1,2.891,0v17.16A1.445,1.445,0,0,1,112.265,321.416Z" transform="translate(-110.82 -301.365)" fill="#eff7fc"/>
        </g>
        <g id="Group_21-2" data-name="Group 21" transform="translate(31.176 61.548)">
          <path id="Path_116" data-name="Path 116" d="M163.2,335.914a1.445,1.445,0,0,1-1.445-1.445v-13.7a1.445,1.445,0,1,1,2.891,0v13.7a1.445,1.445,0,0,1-1.445,1.445Z" transform="translate(-161.75 -319.325)" fill="#eff7fc"/>
        </g>
        <g id="Group_22-2" data-name="Group 22" transform="translate(70.195 0)">
          <path id="Path_117" data-name="Path 117" d="M370.679,29.786a1.445,1.445,0,0,1-1.445-1.445V26.227a5.1,5.1,0,0,1,5.095-5.095,3.826,3.826,0,0,0,3.822-3.822V15.28a3.826,3.826,0,0,0-3.822-3.822h-5.006a5.155,5.155,0,0,1-5.15-5.15V1.445a1.445,1.445,0,1,1,2.891,0V6.309a2.261,2.261,0,0,0,2.259,2.259h5.006a6.721,6.721,0,0,1,6.713,6.713v2.032a6.721,6.721,0,0,1-6.713,6.714,2.206,2.206,0,0,0-2.2,2.2v2.112a1.445,1.445,0,0,1-1.445,1.445Z" transform="translate(-364.173 0)" fill="#adc9dd"/>
        </g>
        <g id="Group_23" data-name="Group 23" transform="translate(63.262 13.562)">
          <path id="Path_118" data-name="Path 118" d="M336.119,85.182a1.445,1.445,0,0,1-1.445-1.445V81.385A1.785,1.785,0,0,0,332.89,79.6a4.679,4.679,0,0,1-4.674-4.674V71.8a1.445,1.445,0,0,1,2.891,0V74.93a1.784,1.784,0,0,0,1.783,1.783,4.679,4.679,0,0,1,4.674,4.674v2.351a1.445,1.445,0,0,1-1.445,1.442Z" transform="translate(-328.216 -70.35)" fill="#adc9dd"/>
        </g>
        <g id="Group_24" data-name="Group 24" transform="translate(77.181 0.013)">
          <path id="Path_119" data-name="Path 119" d="M401.876,5.707a1.445,1.445,0,0,1-1.445-1.445V1.512a1.445,1.445,0,0,1,2.891,0V4.262a1.445,1.445,0,0,1-1.445,1.445Z" transform="translate(-400.431 -0.067)" fill="#adc9dd"/>
        </g>
        <path id="Path_120" data-name="Path 120" d="M306.1,445.378H262.844V431.262h40.489a2.768,2.768,0,0,1,2.768,2.768Z" transform="translate(-212.183 -348.138)" fill="#eff7fc"/>
        <path id="Path_121" data-name="Path 121" d="M455.25,431.262h-4.217a2.768,2.768,0,0,1,2.768,2.768v11.348h4.216V434.03A2.768,2.768,0,0,0,455.25,431.262Z" transform="translate(-364.099 -348.138)" fill="#adc9dd"/>
        <g id="Group_29" data-name="Group 29" transform="translate(57.302 87.179)">
          <g id="Group_25" data-name="Group 25" transform="translate(0)">
            <path id="Path_122" data-name="Path 122" d="M298.743,456.557a1.445,1.445,0,0,1-1.445-1.445v-1.365a1.445,1.445,0,1,1,2.891,0v1.365a1.445,1.445,0,0,1-1.445,1.445Z" transform="translate(-297.298 -452.302)" fill="#142743"/>
          </g>
          <g id="Group_26" data-name="Group 26" transform="translate(9.028)">
            <path id="Path_123" data-name="Path 123" d="M345.583,456.557a1.445,1.445,0,0,1-1.445-1.445v-1.365a1.445,1.445,0,1,1,2.891,0v1.365a1.445,1.445,0,0,1-1.445,1.445Z" transform="translate(-344.138 -452.302)" fill="#142743"/>
          </g>
          <g id="Group_27" data-name="Group 27" transform="translate(18.056)">
            <path id="Path_124" data-name="Path 124" d="M392.423,456.557a1.445,1.445,0,0,1-1.445-1.445v-1.365a1.445,1.445,0,1,1,2.891,0v1.365a1.445,1.445,0,0,1-1.445,1.445Z" transform="translate(-390.978 -452.302)" fill="#142743"/>
          </g>
          <g id="Group_28" data-name="Group 28" transform="translate(27.084)">
            <path id="Path_125" data-name="Path 125" d="M439.261,456.557a1.445,1.445,0,0,1-1.445-1.445v-1.365a1.445,1.445,0,1,1,2.891,0v1.365a1.446,1.446,0,0,1-1.445,1.445Z" transform="translate(-437.816 -452.302)" fill="#142743"/>
          </g>
        </g>
        <g id="Group_30" data-name="Group 30" transform="translate(0 95.794)">
          <path id="Path_126" data-name="Path 126" d="M97.24,499.891H1.445a1.445,1.445,0,0,1,0-2.891H97.24a1.445,1.445,0,0,1,0,2.891Z" transform="translate(0 -497)" fill="#142743"/>
        </g>
      </g>
    </g>
  </g>
</svg>
